PathFileType	3	(X/Y/Z)	D:\minhoCalibration\240510\subject2_KPNP\preferred\preferred11.trc
DataRate	CameraRate	NumFrames	NumMarkers	Units	OrigDataRate	OrigDataStartFrame	OrigNumFrames
200.0	200.0	18	10	mm	200.0	277	182	
Frame#	Time	Left_Ankle_Outer1			Left_Ankle_Inner1			Left_Knee_Outer1			Left_Knee_Inner1			Left_Wrist1			Right_Wrist1			Right_Knee_Inner1			Right_Knee_Outer1			Right_Ankle_Inner1			Right_Ankle_Outer1			
		X1	Y1	Z1	X2	Y2	Z2	X3	Y3	Z3	X4	Y4	Z4	X5	Y5	Z5	X6	Y6	Z6	X7	Y7	Z7	X8	Y8	Z8	X9	Y9	Z9	X10	Y10	Z10	
277	1.375	-606.65131	110.32405	-676.08984	-610.92297	121.01486	-622.61603	-413.07632	510.93204	-749.16919	-411.02396	501.16711	-654.22601	-538.03998	950.50415	-853.50891	-570.58228	1142.6195	-558.47382	-446.1041	927.12915	-144.67062	-462.20828	1024.0565	-157.0547	-867.07495	859.93427	-207.23279	-879.84821	959.047	-196.76279
278	1.38	-606.9903	110.41232	-675.10052	-611.6875	120.03978	-622.99982	-415.15723	511.70544	-747.30688	-412.28461	502.36755	-652.37823	-545.58032	947.51764	-851.47577	-566.03632	1144.6959	-558.86743	-425.72821	936.62341	-148.36986	-440.31461	1032.0126	-163.6983	-852.80731	874.56482	-160.45265	-862.98718	974.4101	-154.03476
279	1.385	-607.60516	110.57741	-674.70972	-611.4519	122.13165	-617.98737	-416.49805	512.82538	-745.62207	-414.55573	503.30597	-649.92499	-552.58154	944.6723	-849.1402	-561.69879	1146.6581	-559.3952	-407.40219	944.8089	-153.51648	-420.86423	1038.5701	-171.05225	-834.53339	889.76703	-113.38248	-842.67114	990.0332	-110.36246
280	1.39	-608.12445	109.99216	-673.82751	-612.28802	121.46236	-617.27747	-418.16922	513.88312	-743.12219	-417.673	503.93826	-646.85968	-559.0957	942.15198	-846.51422	-557.64435	1148.5505	-560.09686	-391.1134	951.57373	-158.99602	-404.13443	1043.7673	-178.61301	-811.91254	905.03857	-65.885452	-818.69849	1005.5552	-66.165993
281	1.395	-608.80536	109.34517	-673.29608	-613.18805	118.73632	-620.58649	-419.83041	514.92871	-740.16895	-421.24176	504.45282	-643.50653	-565.26904	939.63501	-843.70795	-553.69971	1150.4772	-560.84778	-377.45151	957.21558	-164.81535	-390.08124	1047.9548	-186.07448	-784.59802	920.49585	-18.527649	-790.21991	1021.0943	-21.591267
282	1.4	-609.56299	108.99564	-673.17688	-613.97748	118.12865	-619.08136	-421.57553	515.8006	-736.83948	-425.17316	504.69327	-639.92236	-570.15356	938.22925	-841.05145	-550.73871	1152.2715	-561.91626	-366.32788	961.4743	-170.6329	-378.99112	1051.1376	-192.71628	-753.54913	935.91095	19.83342	-757.50427	1037.0601	22.10409
283	1.405	-610.38873	107.95152	-671.90002	-614.96863	118.76675	-614.54474	-423.12079	516.54456	-733.32715	-429.37341	504.76511	-636.21796	-574.33234	937.05109	-838.50214	-548.04523	1154.2975	-562.90558	-358.17303	964.77264	-175.93776	-370.61523	1053.3992	-198.39699	-719.33142	951.18433	64.107193	-720.1701	1052.6716	64.134323
284	1.41	-611.39093	107.59256	-671.30023	-616.10699	115.76951	-617.65717	-424.59146	516.93085	-730.21643	-433.7616	504.69159	-632.51111	-577.76062	936.09515	-836.41461	-545.89996	1156.381	-563.78259	-352.78006	967.18121	-180.75758	-364.64243	1054.8544	-203.03488	-680.73566	966.10632	105.66778	-678.08789	1067.7827	103.56292
285	1.415	-612.41235	106.81094	-669.47418	-617.6734	114.1964	-617.2995	-426.50864	516.69098	-726.75342	-438.13297	504.62253	-628.94086	-580.16589	936.02509	-834.26984	-544.42194	1158.5128	-564.4353	-350.56125	969.11328	-184.73619	-360.85229	1055.5554	-206.43047	-638.40631	980.92908	143.78909	-631.58472	1082.5923	139.71606
286	1.42	-613.62793	106.34739	-667.76636	-618.17542	115.30478	-612.31628	-427.69382	517.03302	-723.90381	-442.31985	504.70102	-625.61078	-581.97278	936.1308	-832.48163	-543.44385	1160.6354	-564.80627	-351.29974	970.50317	-187.7536	-360.47357	1055.5917	-208.06223	-588.49261	994.73608	176.12332	-581.19598	1095.4554	170.873
287	1.425	-614.8454	106.53523	-666.31067	-618.94928	114.82579	-610.49957	-428.95352	517.09613	-721.61938	-446.14783	504.81497	-622.61621	-583.04413	936.59735	-830.83099	-542.97998	1162.6719	-564.77423	-355.05957	971.7616	-189.72069	-362.00864	1055.5664	-208.31116	-536.12122	1006.0848	202.96745	-526.836	1106.6467	196.01123
288	1.43	-615.96411	106.49011	-664.25177	-619.34332	114.12926	-609.67133	-431.08887	516.82111	-719.07721	-449.46741	505.0069	-620.0025	-583.37634	937.26062	-828.98737	-542.98053	1164.7565	-564.16724	-360.63718	973.33667	-189.99855	-365.68585	1055.8899	-207.60132	-480.91702	1015.6977	223.73462	-471.67108	1115.1337	213.94576
289	1.435	-616.91522	106.42764	-661.77637	-620.10071	114.53852	-606.19495	-432.172	517.26404	-717.87683	-452.10855	505.23401	-617.85864	-583.10919	938.2179	-826.836	-543.33667	1166.9185	-563.17535	-368.61853	974.94818	-187.41763	-370.84561	1058.1388	-206.36475	-422.90195	1020.2955	234.9814	-416.26373	1119.6742	223.16333
290	1.44	-617.83582	106.89615	-659.95538	-620.78149	114.36674	-604.38507	-434.3587	517.45239	-716.17847	-453.99615	505.54745	-616.24817	-582.17053	939.33173	-824.20764	-543.87054	1169.2606	-561.57556	-374.49399	977.27246	-183.65216	-375.91977	1063.1327	-203.9655	-364.33774	1022.2629	236.04704	-363.06244	1119.9272	224.83102
291	1.445	-618.61194	107.28728	-657.78796	-620.18964	114.21874	-604.38348	-435.79636	518.22748	-715.43182	-455.08527	505.85889	-615.05823	-580.73218	940.71277	-821.07904	-544.78143	1171.5236	-559.37177	-377.67081	979.69171	-179.76259	-378.69711	1070.053	-200.87042	-325.73758	1022.7556	229.57999	-325.94974	1116.5642	217.16063
292	1.45	-619.31232	108.18379	-656.6441	-620.00153	116.45356	-599.09491	-437.52725	518.95081	-714.81653	-455.4407	506.16605	-614.25629	-578.98834	942.14215	-817.48529	-546.15875	1173.931	-555.86108	-373.11203	982.93805	-177.85551	-375.23187	1075.13	-199.10504	-313.08609	1019.72	225.11694	-309.00742	1115.4512	211.28177
293	1.455	-619.46631	108.7346	-655.22052	-620.43579	114.73631	-602.05042	-439.75888	519.55164	-713.92877	-455.00314	506.47318	-613.54871	-577.28113	943.40082	-813.65363	-547.83435	1175.8865	-552.47412	-358.2186	988.39459	-182.06831	-365.78091	1078.912	-200.24254	-314.72357	1017.3669	224.95848	-309.29211	1113.8317	213.44936
294	1.46	-619.44568	109.70607	-654.72357	-619.58301	116.8065	-598.88422	-441.65359	520.50366	-713.03534	-454.10056	506.67416	-612.77881	-575.73749	944.15198	-809.71021	-550.12305	1177.4315	-549.14215	-343.66779	991.17859	-187.8318	-354.20673	1079.6466	-203.53078	-320.64233	1014.1648	226.631	-316.49597	1112.573	216.50002
